<svg xmlns="http://www.w3.org/2000/svg" xmlns:xlink="http://www.w3.org/1999/xlink" width="1080" zoomAndPan="magnify" viewBox="0 0 810 809.999993" height="1080" preserveAspectRatio="xMidYMid meet" version="1.0"><defs><clipPath id="2cf252147f"><path d="M 16.855469 16.855469 L 793.105469 16.855469 L 793.105469 793.105469 L 16.855469 793.105469 Z M 16.855469 16.855469 " clip-rule="nonzero"/></clipPath></defs><g clip-path="url(#2cf252147f)"><path fill="#2197bd" d="M 793.105469 675.078125 C 793.105469 740.21875 740.296875 793.03125 675.148438 793.03125 L 134.835938 793.03125 C 69.691406 793.03125 16.886719 740.21875 16.886719 675.078125 L 16.886719 134.761719 C 16.886719 69.613281 69.691406 16.808594 134.835938 16.808594 L 675.148438 16.808594 C 740.296875 16.808594 793.109375 69.613281 793.109375 134.761719 L 793.109375 675.078125 Z M 793.105469 675.078125 " fill-opacity="1" fill-rule="nonzero"/></g><path fill="#ffffff" d="M 323.816406 293.742188 C 323.816406 295.640625 323.726562 297.535156 323.539062 299.425781 C 323.351562 301.316406 323.074219 303.191406 322.703125 305.054688 C 322.332031 306.917969 321.871094 308.757812 321.320312 310.574219 C 320.769531 312.390625 320.132812 314.175781 319.40625 315.933594 C 318.675781 317.6875 317.867188 319.402344 316.972656 321.078125 C 316.074219 322.75 315.101562 324.378906 314.046875 325.957031 C 312.992188 327.535156 311.859375 329.058594 310.65625 330.527344 C 309.453125 331.996094 308.175781 333.402344 306.835938 334.746094 C 305.492188 336.085938 304.085938 337.359375 302.617188 338.566406 C 301.148438 339.769531 299.625 340.902344 298.046875 341.957031 C 296.46875 343.011719 294.839844 343.984375 293.167969 344.882812 C 291.492188 345.777344 289.777344 346.585938 288.023438 347.3125 C 286.269531 348.039062 284.480469 348.679688 282.664062 349.230469 C 280.847656 349.78125 279.007812 350.242188 277.144531 350.613281 C 275.28125 350.984375 273.40625 351.261719 271.515625 351.449219 C 269.625 351.636719 267.730469 351.726562 265.832031 351.726562 C 263.933594 351.726562 262.039062 351.636719 260.148438 351.449219 C 258.257812 351.261719 256.382812 350.984375 254.519531 350.613281 C 252.65625 350.242188 250.816406 349.78125 249 349.230469 C 247.183594 348.679688 245.394531 348.039062 243.640625 347.3125 C 241.886719 346.585938 240.171875 345.777344 238.496094 344.882812 C 236.824219 343.984375 235.195312 343.011719 233.617188 341.957031 C 232.039062 340.902344 230.515625 339.769531 229.046875 338.566406 C 227.578125 337.359375 226.171875 336.085938 224.828125 334.746094 C 223.488281 333.402344 222.214844 331.996094 221.007812 330.527344 C 219.804688 329.058594 218.671875 327.535156 217.617188 325.957031 C 216.5625 324.378906 215.589844 322.75 214.691406 321.078125 C 213.796875 319.402344 212.988281 317.6875 212.261719 315.933594 C 211.53125 314.175781 210.894531 312.390625 210.34375 310.574219 C 209.792969 308.757812 209.332031 306.917969 208.960938 305.054688 C 208.589844 303.191406 208.3125 301.316406 208.125 299.425781 C 207.9375 297.535156 207.847656 295.640625 207.847656 293.742188 C 207.847656 291.84375 207.9375 289.949219 208.125 288.058594 C 208.3125 286.167969 208.589844 284.292969 208.960938 282.429688 C 209.332031 280.566406 209.792969 278.726562 210.34375 276.910156 C 210.894531 275.09375 211.53125 273.304688 212.261719 271.550781 C 212.988281 269.796875 213.796875 268.082031 214.691406 266.40625 C 215.589844 264.734375 216.5625 263.105469 217.617188 261.527344 C 218.671875 259.949219 219.804688 258.421875 221.007812 256.957031 C 222.214844 255.488281 223.488281 254.082031 224.828125 252.738281 C 226.171875 251.398438 227.578125 250.121094 229.046875 248.917969 C 230.515625 247.714844 232.039062 246.582031 233.617188 245.527344 C 235.195312 244.472656 236.824219 243.496094 238.496094 242.601562 C 240.171875 241.707031 241.886719 240.894531 243.640625 240.167969 C 245.394531 239.441406 247.183594 238.804688 249 238.253906 C 250.816406 237.703125 252.65625 237.242188 254.519531 236.871094 C 256.382812 236.5 258.257812 236.222656 260.148438 236.035156 C 262.039062 235.847656 263.933594 235.753906 265.832031 235.753906 C 267.730469 235.753906 269.625 235.847656 271.515625 236.035156 C 273.40625 236.222656 275.28125 236.5 277.144531 236.871094 C 279.007812 237.242188 280.847656 237.703125 282.664062 238.253906 C 284.480469 238.804688 286.269531 239.441406 288.023438 240.167969 C 289.777344 240.894531 291.492188 241.707031 293.167969 242.601562 C 294.839844 243.496094 296.46875 244.472656 298.046875 245.527344 C 299.625 246.582031 301.148438 247.714844 302.617188 248.917969 C 304.085938 250.121094 305.492188 251.398438 306.835938 252.738281 C 308.175781 254.082031 309.453125 255.488281 310.65625 256.957031 C 311.859375 258.421875 312.992188 259.949219 314.046875 261.527344 C 315.101562 263.105469 316.074219 264.734375 316.972656 266.40625 C 317.867188 268.082031 318.675781 269.796875 319.40625 271.550781 C 320.132812 273.304688 320.769531 275.09375 321.320312 276.910156 C 321.871094 278.726562 322.332031 280.566406 322.703125 282.429688 C 323.074219 284.292969 323.351562 286.167969 323.539062 288.058594 C 323.726562 289.949219 323.816406 291.84375 323.816406 293.742188 Z M 323.816406 293.742188 " fill-opacity="1" fill-rule="nonzero"/><path fill="#ffffff" d="M 215.84375 394.476562 L 315.460938 394.476562 L 315.460938 714.949219 L 215.84375 714.949219 Z M 215.84375 394.476562 " fill-opacity="1" fill-rule="nonzero"/><path fill="#ffffff" d="M 378.117188 394.476562 L 472.933594 394.476562 L 472.933594 714.949219 L 378.117188 714.949219 Z M 378.117188 394.476562 " fill-opacity="1" fill-rule="nonzero"/><path fill="#ffffff" d="M 382.214844 565.105469 L 477.027344 565.105469 L 477.027344 714.949219 L 382.214844 714.949219 Z M 382.214844 565.105469 " fill-opacity="1" fill-rule="nonzero"/><path fill="#ffffff" d="M 477.027344 565.105469 C 477.027344 565.105469 475.546875 523.539062 486.507812 501.925781 C 486.507812 501.925781 497.472656 475.3125 531.929688 475.152344 C 531.929688 475.152344 572.34375 468.097656 583.929688 508.195312 C 583.929688 508.195312 588.316406 530.433594 588.316406 539.835938 C 588.316406 549.238281 588.632812 714.949219 588.632812 714.949219 L 687.933594 714.949219 L 687.933594 531.378906 C 687.933594 531.378906 695.140625 427.683594 632.902344 399.28125 C 632.902344 399.28125 530.570312 353.335938 475.023438 437.710938 C 475.023438 437.710938 462.910156 446.058594 461.238281 422.671875 C 459.5625 399.28125 445.367188 458.59375 444.945312 459.847656 C 444.527344 461.101562 461.238281 578.054688 461.238281 578.054688 Z M 477.027344 565.105469 " fill-opacity="1" fill-rule="nonzero"/></svg>